<svg width="1440" height="296" viewBox="0 0 1440 296" fill="none" xmlns="http://www.w3.org/2000/svg">
<path fill-rule="evenodd" clip-rule="evenodd" d="M22.4322 37.1912C78.4818 59.4529 103.962 116.676 143.55 162.173C189.518 215.001 269.441 250.561 269.027 320.588C268.596 393.468 196.109 439.526 141.624 487.931C78.8736 543.679 18.2859 633.791 -63.8048 616.28C-145.731 598.805 -161.839 490.827 -198.319 415.418C-225.049 360.163 -243.358 305.6 -243.793 244.22C-244.341 166.928 -262.101 72.7396 -201.085 25.2907C-139.856 -22.3235 -49.6534 8.56032 22.4322 37.1912Z" fill="#71709F"/>
<path fill-rule="evenodd" clip-rule="evenodd" d="M1399.34 424.038C1363.2 419.035 1325.32 412.771 1301.75 384.229C1275.45 352.362 1256.86 307.558 1269.99 267.35C1282.56 228.851 1329 220.557 1362.29 198.845C1394.48 177.841 1420.89 142.276 1458.59 144.313C1500 146.549 1538.23 172.937 1559.5 209.495C1580.26 245.185 1579.64 290.233 1566.75 330.21C1555.12 366.261 1526.86 392.786 1494.52 410.912C1465.13 427.387 1432.19 428.585 1399.34 424.038Z" fill="#71709F"/>
</svg>
