<svg width="287" height="86" viewBox="0 0 287 86" fill="none" xmlns="http://www.w3.org/2000/svg">
    <path
        d="M113.875 59.0938V64H91.125V59.0938H113.875ZM92.3125 18.5V64H86.2812V18.5H92.3125ZM122.688 18.5H128.531L143.438 55.5938L158.312 18.5H164.188L145.688 64H141.125L122.688 18.5ZM120.781 18.5H125.938L126.781 46.25V64H120.781V18.5ZM160.906 18.5H166.062V64H160.062V46.25L160.906 18.5ZM200.906 52.5C200.906 51.4375 200.74 50.5 200.406 49.6875C200.094 48.8542 199.531 48.1042 198.719 47.4375C197.927 46.7708 196.823 46.1354 195.406 45.5312C194.01 44.9271 192.24 44.3125 190.094 43.6875C187.844 43.0208 185.812 42.2812 184 41.4688C182.188 40.6354 180.635 39.6875 179.344 38.625C178.052 37.5625 177.062 36.3438 176.375 34.9688C175.688 33.5938 175.344 32.0208 175.344 30.25C175.344 28.4792 175.708 26.8438 176.438 25.3438C177.167 23.8438 178.208 22.5417 179.562 21.4375C180.938 20.3125 182.573 19.4375 184.469 18.8125C186.365 18.1875 188.479 17.875 190.812 17.875C194.229 17.875 197.125 18.5312 199.5 19.8438C201.896 21.1354 203.719 22.8333 204.969 24.9375C206.219 27.0208 206.844 29.25 206.844 31.625H200.844C200.844 29.9167 200.479 28.4062 199.75 27.0938C199.021 25.7604 197.917 24.7188 196.438 23.9688C194.958 23.1979 193.083 22.8125 190.812 22.8125C188.667 22.8125 186.896 23.1354 185.5 23.7812C184.104 24.4271 183.062 25.3021 182.375 26.4062C181.708 27.5104 181.375 28.7708 181.375 30.1875C181.375 31.1458 181.573 32.0208 181.969 32.8125C182.385 33.5833 183.021 34.3021 183.875 34.9688C184.75 35.6354 185.854 36.25 187.188 36.8125C188.542 37.375 190.156 37.9167 192.031 38.4375C194.615 39.1667 196.844 39.9792 198.719 40.875C200.594 41.7708 202.135 42.7812 203.344 43.9062C204.573 45.0104 205.479 46.2708 206.062 47.6875C206.667 49.0833 206.969 50.6667 206.969 52.4375C206.969 54.2917 206.594 55.9688 205.844 57.4688C205.094 58.9688 204.021 60.25 202.625 61.3125C201.229 62.375 199.552 63.1979 197.594 63.7812C195.656 64.3438 193.49 64.625 191.094 64.625C188.99 64.625 186.917 64.3333 184.875 63.75C182.854 63.1667 181.01 62.2917 179.344 61.125C177.698 59.9583 176.375 58.5208 175.375 56.8125C174.396 55.0833 173.906 53.0833 173.906 50.8125H179.906C179.906 52.375 180.208 53.7188 180.812 54.8438C181.417 55.9479 182.24 56.8646 183.281 57.5938C184.344 58.3229 185.542 58.8646 186.875 59.2188C188.229 59.5521 189.635 59.7188 191.094 59.7188C193.198 59.7188 194.979 59.4271 196.438 58.8438C197.896 58.2604 199 57.4271 199.75 56.3438C200.521 55.2604 200.906 53.9792 200.906 52.5Z"
        fill="#5D528F" />
    <path
        d="M69.875 8.73438H24.1875C21.5173 8.74323 18.9591 9.80788 17.071 11.696C15.1829 13.5841 14.1182 16.1423 14.1094 18.8125V75.25C14.1094 75.7846 14.3217 76.2973 14.6997 76.6753C15.0777 77.0533 15.5904 77.2656 16.125 77.2656H64.5C65.0346 77.2656 65.5473 77.0533 65.9253 76.6753C66.3033 76.2973 66.5156 75.7846 66.5156 75.25C66.5156 74.7154 66.3033 74.2027 65.9253 73.8247C65.5473 73.4467 65.0346 73.2344 64.5 73.2344H18.1406V72.5625C18.1494 70.9615 18.7894 69.4286 19.9215 68.2965C21.0536 67.1644 22.5865 66.5244 24.1875 66.5156H69.875C70.4096 66.5156 70.9223 66.3033 71.3003 65.9253C71.6783 65.5473 71.8906 65.0346 71.8906 64.5V10.75C71.8906 10.2154 71.6783 9.70274 71.3003 9.32474C70.9223 8.94673 70.4096 8.73438 69.875 8.73438ZM67.8594 62.4844H24.1875C22.0057 62.477 19.8816 63.185 18.1406 64.5V18.8125C18.1494 17.2115 18.7894 15.6786 19.9215 14.5465C21.0536 13.4144 22.5865 12.7744 24.1875 12.7656H67.8594V62.4844Z"
        fill="#5D528F" />
</svg>